<?xml version="1.0" encoding="UTF-8"?>
<svg width="158px" height="30px" viewBox="0 0 158 30" version="1.1" xmlns="http://www.w3.org/2000/svg" xmlns:xlink="http://www.w3.org/1999/xlink">
    <title>logo</title>
    <g id="Navigation-Style---Contextual-Footers" stroke="none" stroke-width="1" fill="none" fill-rule="evenodd">
        <g id="Desktop-Option-1---Company" transform="translate(-200.000000, -17.000000)" fill-rule="nonzero">
            <g id="ChargePoint-Logo" transform="translate(200.000000, 17.000000)">
                <g id="Group">
                    <g transform="translate(0.000000, 0.833333)">
                        <path d="M22.3694737,15.4166667 C21.2052632,15.4166667 20.54,16 20.4568421,18.1666667 C20.4568421,19.5 19.7084211,19.8333333 19.0431579,19.8333333 C17.8789474,19.8333333 17.4631579,18.6666667 17.4631579,15.8333333 L17.4631579,12.0833333 C17.4631579,9.83333333 17.5463158,8.16666667 19.0431579,8.16666667 C19.8747368,8.16666667 20.4568421,8.75 20.4568421,9.75 C20.4568421,11.3333333 21.1221053,11.9166667 22.3694737,11.9166667 C23.4505263,11.9166667 24.1989474,11.25 24.1989474,9.75 C24.1989474,8.25 23.2842105,5.16666667 18.96,5.16666667 C14.3863158,5.16666667 13.5547368,7.75 13.4715789,11.25 L1.99578947,11.25 C0.582105263,11.25 0,12.1666667 0,13.0833333 C0,14.1666667 0.582105263,15 1.99578947,15 L13.4715789,15 L13.4715789,15.5 C13.4715789,19.5 13.9705263,22.75 18.96,22.75 C23.3673684,22.75 24.1989474,19.25 24.1989474,17.5833333 C24.2821053,16.1666667 23.5336842,15.4166667 22.3694737,15.4166667 Z" id="Path" fill="#EF7622"></path>
                        <path d="M27.0263158,2.83333333 C27.0263158,1.25 27.7747368,0.583333333 28.9389474,0.583333333 C30.1031579,0.583333333 30.8515789,1.33333333 30.8515789,2.83333333 L30.8515789,7.33333333 L30.9347368,7.33333333 C31.5168421,5.91666667 33.0136842,5.16666667 34.4273684,5.16666667 C36.5063158,5.16666667 38.0031579,6.5 38.0031579,9.33333333 L38.0031579,20.5 C38.0031579,22.0833333 37.2547368,22.75 36.0905263,22.75 C34.9263158,22.75 34.1778947,22 34.1778947,20.5 L34.1778947,10.25 C34.1778947,9 33.5126316,8.5 32.7642105,8.5 C31.6,8.5 30.7684211,9.41666667 30.7684211,11.5 L30.7684211,20.5 C30.7684211,22.0833333 30.02,22.75 28.8557895,22.75 C27.6915789,22.75 26.9431579,22 26.9431579,20.5 L26.9431579,2.83333333 L27.0263158,2.83333333 Z" id="Path" fill="#EF7622"></path>
                        <path d="M51.8905263,18.75 C51.8905263,19.8333333 52.14,20.75 52.14,21.25 C52.14,22.25 51.4747368,22.75 50.2273684,22.75 C49.2294737,22.75 48.2315789,22.25 48.2315789,20.5833333 L48.1484211,20.5833333 C47.4831579,22.0833333 46.0694737,22.6666667 44.7389474,22.6666667 C42.4936842,22.6666667 40.8305263,21.3333333 40.8305263,18.1666667 C40.8305263,15.6666667 41.5789474,14.1666667 43.4915789,13.1666667 L46.8178947,11.4166667 C47.6494737,11 47.9821053,10.3333333 47.9821053,9.66666667 C47.9821053,8.75 47.4831579,8 46.5684211,8 C45.2378947,8 44.9052632,8.66666667 44.7389474,10 C44.6557895,10.75 43.9073684,11.1666667 42.9094737,11.1666667 C42.0778947,11.1666667 40.9136842,10.75 40.9136842,9.58333333 C40.9136842,6.66666667 43.2421053,5.16666667 46.1526316,5.16666667 C51.1421053,5.16666667 51.7242105,7.41666667 51.7242105,10.0833333 L51.7242105,18.75 L51.8905263,18.75 Z M48.0652632,13.75 L46.7347368,14.6666667 C45.0715789,15.8333333 44.7389474,16.4166667 44.7389474,17.8333333 C44.7389474,19.0833333 45.2378947,19.8333333 46.0694737,19.8333333 C47.3168421,19.8333333 48.0652632,18.5 48.0652632,16.75 L48.0652632,13.75 Z" id="Shape" fill="#EF7622"></path>
                        <path d="M55.0505263,7.25 C55.0505263,6 55.5494737,5.25 56.7968421,5.25 C58.0442105,5.25 58.5431579,6.08333333 58.5431579,7.25 L58.5431579,8.83333333 L58.6263158,8.83333333 C59.2084211,6.75 60.1231579,5.25 61.4536842,5.25 C62.4515789,5.25 63.2831579,6 63.2831579,7.66666667 C63.2831579,8.83333333 62.7010526,9.91666667 60.9547368,9.91666667 C59.7905263,9.91666667 58.7926316,10.75 58.7926316,12.1666667 L58.7926316,20.4166667 C58.7926316,22 58.0442105,22.6666667 56.88,22.6666667 C55.7157895,22.6666667 54.9673684,21.9166667 54.9673684,20.4166667 L54.9673684,7.25 L55.0505263,7.25 Z" id="Path" fill="#EF7622"></path>
                        <path d="M64.6136842,11.5 C64.6136842,8.33333333 65.4452632,5.25 68.6052632,5.25 C70.0189474,5.25 71.5157895,6.08333333 72.0978947,7.5 L72.1810526,7.5 C72.1810526,5.91666667 72.8463158,5.25 74.0105263,5.25 C75.0915789,5.25 75.84,6 75.84,7.5 L75.84,23.3333333 C75.84,27.1666667 73.9273684,28.8333333 70.1852632,28.8333333 C67.3578947,28.8333333 65.2789474,27.9166667 65.2789474,25.75 C65.2789474,24.6666667 66.1105263,24.0833333 67.1915789,24.0833333 C68.0231579,24.0833333 68.6052632,24.5833333 68.8547368,25.1666667 C69.1873684,25.9166667 69.6863158,26.1666667 70.1852632,26.1666667 C71.8484211,26.1666667 72.1810526,25.0833333 72.1810526,22.8333333 L72.1810526,20.5 L72.0978947,20.5 C71.2663158,22.0833333 70.3515789,22.4166667 68.7715789,22.4166667 C65.3621053,22.4166667 64.78,19.3333333 64.78,15.9166667 L64.78,11.5 L64.6136842,11.5 Z M68.6052632,14.6666667 C68.6052632,18.3333333 68.9378947,19.3333333 70.1852632,19.3333333 C71.1,19.3333333 72.0147368,18.6666667 72.0147368,15.25 L72.0147368,12.3333333 C72.0147368,9 70.9336842,8.25 70.1852632,8.25 C69.1042105,8.25 68.5221053,9.25 68.5221053,11.9166667 L68.5221053,14.6666667 L68.6052632,14.6666667 Z" id="Shape" fill="#EF7622"></path>
                        <path d="M78.8336842,12.25 C78.8336842,8 79.4157895,5.25 84.5715789,5.25 C88.48,5.25 89.8105263,7.41666667 89.8105263,11.8333333 C89.8105263,13.3333333 89.6442105,14.5 87.7315789,14.5 L82.8252632,14.5 L82.8252632,16.1666667 C82.8252632,18.1666667 82.9915789,19.75 84.4884211,19.75 C85.32,19.75 85.9021053,18.9166667 85.9021053,18 C85.9852632,16.3333333 86.7336842,16 87.7315789,16 C88.8126316,16 89.6442105,16.3333333 89.6442105,17.8333333 C89.6442105,20.8333333 87.5652632,22.6666667 84.4884211,22.6666667 C79.3326316,22.6666667 78.7505263,19.9166667 78.7505263,15.6666667 L78.7505263,12.25 L78.8336842,12.25 Z M85.9852632,11.8333333 L85.9852632,10.4166667 C85.9852632,9.16666667 85.5694737,8.16666667 84.3221053,8.16666667 C83.0747368,8.16666667 82.6589474,9.16666667 82.6589474,10.4166667 L82.6589474,11.8333333 L85.9852632,11.8333333 Z" id="Shape" fill="#EF7622"></path>
                        <path d="M92.5547368,7.5 C92.5547368,5.91666667 93.3031579,5.25 94.4673684,5.25 C95.6315789,5.25 96.38,6 96.38,7.5 L96.4631579,7.5 C97.1284211,6.08333333 98.4589474,5.25 99.7894737,5.25 C103.198947,5.25 103.781053,8.33333333 103.781053,11.75 L103.781053,16.25 C103.781053,19.6666667 103.198947,22.75 99.7894737,22.75 C98.3757895,22.75 97.1284211,22.1666667 96.4631579,20.8333333 L96.38,20.8333333 L96.38,25.5833333 C96.38,27.1666667 95.6315789,27.8333333 94.4673684,27.8333333 C93.3031579,27.8333333 92.5547368,27.0833333 92.5547368,25.5833333 L92.5547368,7.5 Z M96.38,15.75 C96.38,18.1666667 96.7957895,19.8333333 98.2926316,19.8333333 C99.7063158,19.8333333 99.8726316,18.25 99.8726316,15.4166667 L99.8726316,13.0833333 C99.8726316,9.41666667 99.54,8.41666667 98.2926316,8.41666667 C97.3778947,8.41666667 96.4631579,9.08333333 96.4631579,12.5 L96.4631579,15.75 L96.38,15.75 Z" id="Shape" fill="#7C98AB"></path>
                        <path d="M106.192632,11.75 C106.192632,8.16666667 107.356842,5.25 111.847368,5.25 C116.337895,5.25 117.502105,8.16666667 117.502105,11.75 L117.502105,16.3333333 C117.502105,19.9166667 116.337895,22.8333333 111.847368,22.8333333 C107.356842,22.8333333 106.192632,19.9166667 106.192632,16.3333333 L106.192632,11.75 Z M110.184211,16 C110.184211,19.0833333 110.683158,19.8333333 111.930526,19.8333333 C113.177895,19.8333333 113.676842,19.0833333 113.676842,16 L113.676842,12 C113.676842,9 113.094737,8.25 111.930526,8.25 C110.849474,8.25 110.184211,9 110.184211,12 L110.184211,16 Z" id="Shape" fill="#7C98AB"></path>
                        <path d="M120.578947,7.5 C120.578947,5.91666667 121.327368,5.25 122.491579,5.25 C123.655789,5.25 124.404211,6 124.404211,7.5 L124.404211,20.5 C124.404211,22.0833333 123.655789,22.75 122.491579,22.75 C121.327368,22.75 120.578947,22 120.578947,20.5 L120.578947,7.5 Z" id="Path" fill="#7C98AB"></path>
                        <path d="M155.006316,11.3333333 L149.351579,11.3333333 L149.351579,7 C149.351579,5.75 148.603158,4.83333333 147.522105,4.83333333 C146.441053,4.83333333 145.692632,5.75 145.692632,7 L145.692632,11.25 L138.790526,11.25 L138.790526,9.33333333 C138.790526,6.5 137.293684,5.16666667 135.214737,5.16666667 C133.801053,5.16666667 132.304211,5.91666667 131.722105,7.33333333 L131.638947,7.33333333 C131.638947,5.91666667 130.890526,5.16666667 129.726316,5.16666667 C128.562105,5.16666667 127.813684,5.91666667 127.813684,7.41666667 L127.813684,20.4166667 C127.813684,22 128.562105,22.6666667 129.726316,22.6666667 C130.890526,22.6666667 131.638947,21.9166667 131.638947,20.4166667 L131.638947,11.5 C131.638947,9.41666667 132.387368,8.5 133.634737,8.5 C134.466316,8.5 135.048421,9 135.048421,10.25 L135.048421,20.5 C135.048421,22.0833333 135.796842,22.75 136.961053,22.75 C138.125263,22.75 138.873684,22 138.873684,20.5 L138.873684,15 L145.775789,15 L145.775789,20.6666667 C145.775789,21.9166667 146.524211,22.8333333 147.605263,22.8333333 C148.686316,22.8333333 149.434737,21.9166667 149.434737,20.6666667 L149.434737,15 L155.089474,15 C156.42,15 157.251579,14.25 157.251579,13.1666667 C157.168421,12.0833333 156.336842,11.3333333 155.006316,11.3333333 Z" id="Path" fill="#7C98AB"></path>
                    </g>
                    <path d="M122.491579,0.416666667 C123.655789,0.416666667 124.653684,1.41666667 124.653684,2.58333333 C124.653684,3.75 123.655789,4.75 122.491579,4.75 C121.327368,4.75 120.329474,3.75 120.329474,2.58333333 C120.329474,1.33333333 121.244211,0.416666667 122.491579,0.416666667 Z" id="Path" fill="#7C98AB"></path>
                </g>
                <path d="M153.093684,21.5 L153.093684,21.5 C153.093684,20.1666667 154.008421,19.1666667 155.089474,19.1666667 C156.253684,19.1666667 157.085263,20.1666667 157.085263,21.3333333 L157.085263,21.4166667 C157.085263,22.6666667 156.170526,23.6666667 155.089474,23.6666667 C154.008421,23.75 153.093684,22.75 153.093684,21.5 Z M156.918947,21.5 L156.918947,21.5 C156.918947,20.3333333 156.170526,19.5 155.172632,19.5 C154.174737,19.5 153.426316,20.4166667 153.426316,21.5 L153.426316,21.5833333 C153.426316,22.6666667 154.174737,23.5833333 155.172632,23.5833333 C156.170526,23.5 156.918947,22.5833333 156.918947,21.5 Z M154.341053,20.25 L155.172632,20.25 C155.671579,20.25 156.004211,20.5 156.004211,21 C156.004211,21.3333333 155.837895,21.5833333 155.505263,21.6666667 L156.087368,22.5833333 L155.588421,22.5833333 L155.089474,21.75 L154.673684,21.75 L154.673684,22.5833333 L154.257895,22.5833333 L154.257895,20.25 L154.341053,20.25 Z M155.172632,21.4166667 C155.505263,21.4166667 155.671579,21.25 155.671579,21 C155.671579,20.75 155.505263,20.5833333 155.172632,20.5833333 L154.756842,20.5833333 L154.756842,21.3333333 L155.172632,21.3333333 L155.172632,21.4166667 Z" id="Shape" fill="#7C98AB"></path>
            </g>
        </g>
    </g>
</svg>